<?xml version="1.0" encoding="UTF-8"?>
<svg version="1.1" xmlns="http://www.w3.org/2000/svg" width="57" height="57">
<path d="M0 0 C1.92726596 -0.02154909 3.85443486 -0.05561535 5.78125 -0.10253906 C8.56611649 -0.16972782 11.34895747 -0.19703128 14.13452148 -0.21606445 C14.98894333 -0.24389511 15.84336517 -0.27172577 16.72367859 -0.30039978 C22.41062633 -0.28101274 25.30840434 0.97870929 29.42451477 4.91905212 C33.75737682 9.90229122 32.06846288 19.3694433 32.12158203 25.68847656 C32.14313112 27.61574252 32.17719738 29.54291142 32.22412109 31.46972656 C32.29130985 34.25459305 32.31861331 37.03743404 32.33764648 39.82299805 C32.36547714 40.67741989 32.3933078 41.53184174 32.42198181 42.41215515 C32.40259477 48.0991029 31.14287274 50.9968809 27.20252991 55.11299133 C22.21929081 59.44585338 12.75213873 57.75693944 6.43310547 57.81005859 C4.50583951 57.83160768 2.57867061 57.86567394 0.65185547 57.91259766 C-2.13301102 57.97978642 -4.915852 58.00708987 -7.70141602 58.02612305 C-8.55583786 58.0539537 -9.4102597 58.08178436 -10.29057312 58.11045837 C-15.97752086 58.09107133 -18.87529887 56.8313493 -22.9914093 52.89100647 C-27.32427135 47.90776737 -25.63535741 38.44061529 -25.68847656 32.12158203 C-25.71002565 30.19431608 -25.74409191 28.26714717 -25.79101562 26.34033203 C-25.85820438 23.55546554 -25.88550784 20.77262456 -25.90454102 17.98706055 C-25.93237167 17.1326387 -25.96020233 16.27821686 -25.98887634 15.39790344 C-25.9694893 9.7109557 -24.70976727 6.81317769 -20.76942444 2.69706726 C-15.78618534 -1.63579479 -6.31903326 0.05311916 0 0 Z " fill="#FF0000" transform="translate(25.283447265625,-0.405029296875)"/>
<path d="M0 0 C10.007999 0 12.24983429 1.05138239 18.765625 7.5 C21.75459422 11.13216513 21.39101225 15.73684267 21.34375 20.203125 C20.82458037 24.42727794 19.19215022 27.20480111 16 30 C14.39125 30.556875 14.39125 30.556875 12.75 31.125 C9.6764836 32.74903688 9.6764836 32.74903688 9.3984375 36.06640625 C9.14771785 39.3866507 9.00949826 42.67086012 9 46 C7.02 46 5.04 46 3 46 C3 45.34 3 44.68 3 44 C2.01 44 1.02 44 0 44 C0 29.48 0 14.96 0 0 Z " fill="#FFFBFB" transform="translate(19,5)"/>
<path d="M0 0 C0.33 0 0.66 0 1 0 C1 14.19 1 28.38 1 43 C2.65 43 4.3 43 6 43 C5.9071875 42.11957031 5.814375 41.23914062 5.71875 40.33203125 C5.49589622 36.74647317 5.42483864 33.55043216 6 30 C7.86665081 27.99411184 9.43492906 27.15405445 11.95703125 26.125 C14.82276004 24.54693137 15.67309733 22.9730913 17 20 C17.36068502 16.64707992 17.36068502 16.64707992 17.1875 13.1875 C17.16042969 12.02605469 17.13335937 10.86460938 17.10546875 9.66796875 C17.05326172 8.34732422 17.05326172 8.34732422 17 7 C20 9 20 9 21 12 C21.59710055 17.35684493 21.95976286 22.37285571 18.875 27 C16.81608349 29.529526 15.98002395 30.00691479 12.75 31.125 C9.6764836 32.74903688 9.6764836 32.74903688 9.3984375 36.06640625 C9.14771785 39.3866507 9.00949826 42.67086012 9 46 C7.02 46 5.04 46 3 46 C3 45.34 3 44.68 3 44 C2.01 44 1.02 44 0 44 C0 29.48 0 14.96 0 0 Z " fill="#FFA4A4" transform="translate(19,5)"/>
<path d="M0 0 C2.70072754 2.46588166 3.80586535 4.32916897 4.23828125 8.05078125 C4.41951525 13.57364901 3.79936836 16.70071475 0 21 C-5.26315789 25 -5.26315789 25 -8 25 C-8 29.62 -8 34.24 -8 39 C-9.98 39 -11.96 39 -14 39 C-14 38.01 -14 37.02 -14 36 C-13.01 36 -12.02 36 -11 36 C-11.0928125 35.11957031 -11.185625 34.23914062 -11.28125 33.33203125 C-11.50410378 29.74647317 -11.57516136 26.55043216 -11 23 C-9.13334919 20.99411184 -7.56507094 20.15405445 -5.04296875 19.125 C-2.17723996 17.54693137 -1.32690267 15.9730913 0 13 C0.36068502 9.64707992 0.36068502 9.64707992 0.1875 6.1875 C0.14689453 4.44533203 0.14689453 4.44533203 0.10546875 2.66796875 C0.07066406 1.78753906 0.03585938 0.90710937 0 0 Z " fill="#FF4A4A" transform="translate(39,15)"/>
<path d="M0 0 C4 1 4 1 6 3 C6.265625 5.27734375 6.265625 5.27734375 6.25 7.9375 C6.25515625 8.81277344 6.2603125 9.68804687 6.265625 10.58984375 C6 13 6 13 4 16 C3.34 16 2.68 16 2 16 C2 16.66 2 17.32 2 18 C1.34 18 0.68 18 0 18 C0 12.06 0 6.12 0 0 Z " fill="#FFB2B2" transform="translate(25,11)"/>
<path d="M0 0 C0.99 0 1.98 0 3 0 C3.02698189 1.62490954 3.04638757 3.24994633 3.0625 4.875 C3.07410156 5.77992187 3.08570313 6.68484375 3.09765625 7.6171875 C3 10 3 10 2 12 C1.34 12 0.68 12 0 12 C0 8.04 0 4.08 0 0 Z " fill="#FF5959" transform="translate(28,14)"/>
<path d="M0 0 C0.33 0 0.66 0 1 0 C1 3.96 1 7.92 1 12 C-0.98 12 -2.96 12 -5 12 C-5 11.34 -5 10.68 -5 10 C-3.68 10 -2.36 10 -1 10 C-1.020625 8.72125 -1.04125 7.4425 -1.0625 6.125 C-1.125 2.25 -1.125 2.25 0 0 Z " fill="#FF9A9A" transform="translate(27,39)"/>
<path d="M0 0 C0.66 0.99 1.32 1.98 2 3 C0.35 4.65 -1.3 6.3 -3 8 C-3.66 6.68 -4.32 5.36 -5 4 C-3.35 2.68 -1.7 1.36 0 0 Z " fill="#FF9696" transform="translate(36,28)"/>
<path d="M0 0 C0.33 0 0.66 0 1 0 C1.33 4.95 1.66 9.9 2 15 C0.35 14.67 -1.3 14.34 -3 14 C-2.01 13.67 -1.02 13.34 0 13 C0 8.71 0 4.42 0 0 Z " fill="#FF5D5D" transform="translate(28,38)"/>
</svg>
